<svg width="429" height="60" viewBox="0 0 429 60" fill="none" xmlns="http://www.w3.org/2000/svg">
<path d="M412.459 51C412.459 54.9775 415.938 58.202 420.23 58.202C424.521 58.202 428 54.9775 428 51C428 47.0224 424.521 43.798 420.23 43.798C415.938 43.798 412.459 47.0224 412.459 51Z" fill="#3A2746"/>
<path d="M0 1H22.5L72.5 51H412.459M412.459 51C412.459 54.9775 415.938 58.202 420.23 58.202C424.521 58.202 428 54.9775 428 51C428 47.0224 424.521 43.798 420.23 43.798C415.938 43.798 412.459 47.0224 412.459 51Z" stroke="#3A2746" stroke-width="2"/>
</svg>
