<svg width="1920" height="110" viewBox="0 0 1920 110" fill="none" xmlns="http://www.w3.org/2000/svg">
<rect width="1920" height="110" fill="white" fill-opacity="0.02"/>
<path d="M384.723 51.2906L376.649 65.7708L376.693 70.6422H384.812L384.723 51.2906ZM348.5 70.6422H356.664V66.3071L348.5 51.6929V70.6422ZM377.452 39.3579L366.745 57.4134L355.771 39.3579H348.5L356.664 54.5084L364.649 67.5585H368.574L376.604 54.0615L384.5 39.3579H377.452Z" fill="#993CD2"/>
<path d="M429.973 51.2906L421.899 65.7708L421.944 70.6422H430.063L429.973 51.2906ZM393.75 70.6422H401.914V66.3071L393.75 51.6929V70.6422ZM422.702 39.3579L411.996 57.4134L401.022 39.3579H393.75L401.914 54.5084L409.899 67.5585H413.825L421.854 54.0615L429.75 39.3579H422.702Z" fill="#993CD2"/>
<path fill-rule="evenodd" clip-rule="evenodd" d="M452.409 70.6422C461.047 70.6422 468.051 63.639 468.051 55.0001C468.051 46.3611 461.047 39.3579 452.409 39.3579C443.77 39.3579 436.766 46.3611 436.766 55.0001C436.766 63.639 443.77 70.6422 452.409 70.6422ZM446.673 53.9572C448.977 53.9572 450.844 52.0897 450.844 49.786C450.844 47.4823 448.977 45.6147 446.673 45.6147C444.369 45.6147 442.502 47.4823 442.502 49.786C442.502 52.0897 444.369 53.9572 446.673 53.9572ZM462.191 52.7041L460.937 53.9573L453.848 46.868L455.101 45.6148L458.019 48.5328L460.937 45.6148L462.191 46.868L459.273 49.786L462.191 52.7041ZM453.848 52.7041L455.764 50.7879L457.017 52.0411L455.101 53.9573L453.848 52.7041ZM450.844 63.6536L449.591 64.9068L442.502 57.8175L443.755 56.5643L446.673 59.4823L449.591 56.5643L450.844 57.8175L447.926 60.7355L450.844 63.6536ZM442.502 63.6536L444.418 61.7374L445.671 62.9906L443.755 64.9068L442.502 63.6536ZM462.315 60.7355C462.315 63.0392 460.448 64.9068 458.144 64.9068C455.84 64.9068 453.973 63.0392 453.973 60.7355C453.973 58.4318 455.84 56.5643 458.144 56.5643C460.448 56.5643 462.315 58.4318 462.315 60.7355Z" fill="white"/>
<path fill-rule="evenodd" clip-rule="evenodd" d="M471.403 68.4076C475.043 68.4076 478.312 66.8267 480.564 64.3105L482.229 65.8008C479.571 68.7706 475.705 70.6422 471.403 70.6422C467.383 70.6422 463.743 69.0078 461.114 66.3701L462.697 64.7927C464.924 67.0269 468.001 68.4076 471.403 68.4076Z" fill="url(#paint0_linear_1_1601)"/>
<path d="M496.671 54.3555V62.6063C495.195 63.2938 493.676 63.5946 492.027 63.5946C490.335 63.5946 488.859 63.2509 487.557 62.5203C486.255 61.7898 485.214 60.7584 484.519 59.4692C483.781 58.1801 483.434 56.676 483.434 55.0001C483.434 52.4217 484.215 50.316 485.821 48.769C487.383 47.222 489.51 46.4055 492.114 46.4055C494.978 46.4055 497.409 47.5228 499.492 49.7574L504.96 44.8584C503.441 43.0966 501.575 41.7214 499.318 40.776C497.061 39.8306 494.501 39.3579 491.68 39.3579C488.425 39.3579 485.517 40.0455 482.957 41.3776C480.353 42.7098 478.357 44.5576 476.924 46.9211C475.449 49.3276 474.754 51.992 474.754 55.0001C474.754 58.0082 475.449 60.7155 476.924 63.079C478.357 65.4855 480.353 67.3333 482.913 68.6654C485.431 69.9976 488.295 70.6422 491.506 70.6422C493.763 70.6422 496.02 70.3414 498.277 69.6538C500.533 69.0092 502.53 68.0638 504.266 66.8176V54.3555H496.671Z" fill="#993CD2"/>
<path d="M526.15 39.3579V70.6422H550.172V63.6256H535.091V39.3579H526.15Z" fill="#993CD2"/>
<path d="M556.317 39.3579V70.6422H565.255V39.3579H556.317Z" fill="#993CD2"/>
<path d="M573.635 70.6422H582.417V59.9162H597.098V53.0783H573.635V70.6422ZM573.635 39.3579V46.1958H597.098V39.3579H573.635Z" fill="#993CD2"/>
<path d="M629.5 39.3579H604.919V46.1958H629.5V39.3579ZM629.5 51.4694H604.919V58.0838H629.5V51.4694ZM604.919 63.8044V70.6422H629.5V63.8044H604.919Z" fill="#993CD2"/>
<path d="M678.221 48.7227H682.469C684.311 48.7227 685.701 48.9896 686.639 49.5234C687.576 50.0573 688.045 50.9785 688.045 52.2871C688.045 52.834 687.947 53.3288 687.752 53.7715C687.563 54.2077 687.286 54.569 686.922 54.8555C686.557 55.1354 686.108 55.3242 685.574 55.4219V55.5195C686.128 55.6172 686.619 55.7897 687.049 56.0371C687.485 56.2845 687.827 56.6393 688.074 57.1016C688.328 57.5638 688.455 58.1628 688.455 58.8984C688.455 59.7708 688.247 60.513 687.83 61.125C687.42 61.737 686.831 62.2025 686.062 62.5215C685.301 62.8405 684.396 63 683.348 63H678.221V48.7227ZM680.564 54.6113H682.811C683.872 54.6113 684.607 54.4388 685.018 54.0938C685.428 53.7487 685.633 53.2441 685.633 52.5801C685.633 51.903 685.389 51.4147 684.9 51.1152C684.419 50.8158 683.65 50.666 682.596 50.666H680.564V54.6113ZM680.564 56.5059V61.0371H683.035C684.129 61.0371 684.897 60.8255 685.34 60.4023C685.783 59.9792 686.004 59.4062 686.004 58.6836C686.004 58.2409 685.903 57.8568 685.701 57.5312C685.506 57.2057 685.184 56.9551 684.734 56.7793C684.285 56.597 683.68 56.5059 682.918 56.5059H680.564ZM695.418 48.7227C696.648 48.7227 697.664 48.8724 698.465 49.1719C699.272 49.4714 699.871 49.9271 700.262 50.5391C700.659 51.151 700.857 51.929 700.857 52.873C700.857 53.5762 700.727 54.1751 700.467 54.6699C700.206 55.1647 699.865 55.5749 699.441 55.9004C699.018 56.2259 698.566 56.4863 698.084 56.6816L702.137 63H699.49L696.043 57.2773H693.748V63H691.404V48.7227H695.418ZM695.262 50.6758H693.748V55.3438H695.369C696.456 55.3438 697.244 55.1419 697.732 54.7383C698.227 54.3346 698.475 53.7389 698.475 52.9512C698.475 52.1243 698.211 51.5384 697.684 51.1934C697.163 50.8483 696.355 50.6758 695.262 50.6758ZM716.854 55.8418C716.854 56.9421 716.714 57.9447 716.434 58.8496C716.16 59.748 715.747 60.5228 715.193 61.1738C714.64 61.8184 713.947 62.3164 713.113 62.668C712.28 63.0195 711.303 63.1953 710.184 63.1953C709.044 63.1953 708.055 63.0195 707.215 62.668C706.382 62.3164 705.688 61.8151 705.135 61.1641C704.588 60.513 704.178 59.735 703.904 58.8301C703.631 57.9251 703.494 56.9225 703.494 55.8223C703.494 54.3509 703.735 53.0684 704.217 51.9746C704.705 50.8743 705.444 50.0215 706.434 49.416C707.43 48.804 708.686 48.498 710.203 48.498C711.688 48.498 712.921 48.8008 713.904 49.4062C714.887 50.0117 715.623 50.8646 716.111 51.9648C716.606 53.0586 716.854 54.3509 716.854 55.8418ZM705.955 55.8418C705.955 56.9421 706.105 57.8958 706.404 58.7031C706.704 59.5039 707.163 60.1224 707.781 60.5586C708.406 60.9883 709.207 61.2031 710.184 61.2031C711.167 61.2031 711.967 60.9883 712.586 60.5586C713.204 60.1224 713.66 59.5039 713.953 58.7031C714.246 57.8958 714.393 56.9421 714.393 55.8418C714.393 54.1686 714.057 52.86 713.387 51.916C712.723 50.9655 711.661 50.4902 710.203 50.4902C709.227 50.4902 708.423 50.7051 707.791 51.1348C707.166 51.5645 706.704 52.1797 706.404 52.9805C706.105 53.7747 705.955 54.7285 705.955 55.8418ZM736.805 48.7227L733.074 63H730.516L728.133 54.4453C728.074 54.237 728.009 53.9896 727.938 53.7031C727.866 53.4167 727.794 53.1237 727.723 52.8242C727.658 52.5247 727.599 52.2513 727.547 52.0039C727.501 51.75 727.469 51.5547 727.449 51.418C727.436 51.5547 727.407 51.7467 727.361 51.9941C727.316 52.2415 727.26 52.515 727.195 52.8145C727.137 53.1074 727.072 53.4004 727 53.6934C726.928 53.9798 726.863 54.2337 726.805 54.4551L724.461 63H721.912L718.191 48.7227H720.545L722.605 57.0918C722.671 57.3587 722.736 57.6484 722.801 57.9609C722.872 58.2669 722.938 58.5762 722.996 58.8887C723.061 59.2012 723.12 59.5072 723.172 59.8066C723.224 60.0996 723.266 60.3665 723.299 60.6074C723.331 60.36 723.374 60.0866 723.426 59.7871C723.478 59.4811 723.533 59.1719 723.592 58.8594C723.657 58.5404 723.722 58.2344 723.787 57.9414C723.859 57.6484 723.93 57.3848 724.002 57.1504L726.326 48.7227H728.611L730.984 57.1797C731.056 57.4206 731.124 57.6908 731.189 57.9902C731.261 58.2897 731.329 58.5957 731.395 58.9082C731.46 59.2207 731.518 59.5234 731.57 59.8164C731.622 60.1094 731.665 60.373 731.697 60.6074C731.743 60.2884 731.801 59.9238 731.873 59.5137C731.945 59.1035 732.026 58.6868 732.117 58.2637C732.208 57.8405 732.299 57.4499 732.391 57.0918L734.441 48.7227H736.805ZM747.068 59.1133C747.068 59.9596 746.86 60.6888 746.443 61.3008C746.033 61.9128 745.441 62.3815 744.666 62.707C743.898 63.0326 742.98 63.1953 741.912 63.1953C741.391 63.1953 740.893 63.166 740.418 63.1074C739.943 63.0488 739.493 62.9642 739.07 62.8535C738.654 62.7363 738.273 62.5964 737.928 62.4336V60.2266C738.507 60.4805 739.155 60.7116 739.871 60.9199C740.587 61.1217 741.316 61.2227 742.059 61.2227C742.664 61.2227 743.165 61.1445 743.562 60.9883C743.966 60.8255 744.266 60.5977 744.461 60.3047C744.656 60.0052 744.754 59.6569 744.754 59.2598C744.754 58.8366 744.64 58.4785 744.412 58.1855C744.184 57.8926 743.839 57.6257 743.377 57.3848C742.921 57.1374 742.348 56.8737 741.658 56.5938C741.189 56.4049 740.74 56.1901 740.311 55.9492C739.887 55.7083 739.51 55.4251 739.178 55.0996C738.846 54.7741 738.582 54.39 738.387 53.9473C738.198 53.498 738.104 52.9707 738.104 52.3652C738.104 51.5579 738.296 50.8678 738.68 50.2949C739.07 49.722 739.617 49.2826 740.32 48.9766C741.03 48.6706 741.857 48.5176 742.801 48.5176C743.549 48.5176 744.253 48.5957 744.91 48.752C745.574 48.9082 746.225 49.1296 746.863 49.416L746.121 51.3008C745.535 51.0599 744.965 50.8678 744.412 50.7246C743.865 50.5814 743.305 50.5098 742.732 50.5098C742.238 50.5098 741.818 50.5846 741.473 50.7344C741.128 50.8841 740.864 51.0957 740.682 51.3691C740.506 51.6361 740.418 51.9551 740.418 52.3262C740.418 52.7428 740.519 53.0944 740.721 53.3809C740.929 53.6608 741.248 53.918 741.678 54.1523C742.114 54.3867 742.674 54.6471 743.357 54.9336C744.145 55.2591 744.812 55.6009 745.359 55.959C745.913 56.3171 746.336 56.7467 746.629 57.248C746.922 57.7428 747.068 58.3646 747.068 59.1133ZM757.908 63H749.822V48.7227H757.908V50.6953H752.166V54.5723H757.547V56.5352H752.166V61.0176H757.908V63ZM771.951 55.2461H777.283V62.4141C776.535 62.6615 775.76 62.8535 774.959 62.9902C774.158 63.127 773.26 63.1953 772.264 63.1953C770.812 63.1953 769.581 62.9089 768.572 62.3359C767.57 61.7565 766.808 60.9199 766.287 59.8262C765.766 58.7259 765.506 57.401 765.506 55.8516C765.506 54.3607 765.796 53.0684 766.375 51.9746C766.954 50.8743 767.798 50.0247 768.904 49.4258C770.011 48.8203 771.352 48.5176 772.928 48.5176C773.702 48.5176 774.451 48.5957 775.174 48.752C775.903 48.9017 776.57 49.11 777.176 49.377L776.355 51.3105C775.874 51.0827 775.333 50.8906 774.734 50.7344C774.135 50.5781 773.514 50.5 772.869 50.5C771.847 50.5 770.965 50.7214 770.223 51.1641C769.487 51.6068 768.921 52.2318 768.523 53.0391C768.126 53.8398 767.928 54.7871 767.928 55.8809C767.928 56.9421 768.087 57.873 768.406 58.6738C768.725 59.4746 769.223 60.0996 769.9 60.5488C770.584 60.9915 771.466 61.2129 772.547 61.2129C773.087 61.2129 773.546 61.1836 773.924 61.125C774.301 61.0664 774.65 61.0013 774.969 60.9297V57.248H771.951V55.2461ZM789.549 63L788.152 59.0352H782.693L781.297 63H778.826L784.139 48.6641H786.736L792.039 63H789.549ZM787.547 57.0234L786.189 53.1172C786.137 52.9479 786.062 52.7103 785.965 52.4043C785.867 52.0918 785.77 51.776 785.672 51.457C785.574 51.1315 785.493 50.8581 785.428 50.6367C785.363 50.9036 785.281 51.2031 785.184 51.5352C785.092 51.8607 785.001 52.1667 784.91 52.4531C784.826 52.7396 784.76 52.9609 784.715 53.1172L783.348 57.0234H787.547ZM800.086 63L795.975 51.0762H795.887C795.906 51.3431 795.929 51.7077 795.955 52.1699C795.981 52.6322 796.004 53.127 796.023 53.6543C796.043 54.1816 796.053 54.6862 796.053 55.168V63H793.924V48.7227H797.215L801.17 60.1191H801.229L805.32 48.7227H808.602V63H806.365V55.0508C806.365 54.6146 806.372 54.1426 806.385 53.6348C806.404 53.127 806.424 52.6452 806.443 52.1895C806.469 51.7337 806.489 51.3691 806.502 51.0957H806.424L802.156 63H800.086ZM820.447 63H812.361V48.7227H820.447V50.6953H814.705V54.5723H820.086V56.5352H814.705V61.0176H820.447V63ZM831.775 59.1133C831.775 59.9596 831.567 60.6888 831.15 61.3008C830.74 61.9128 830.148 62.3815 829.373 62.707C828.605 63.0326 827.687 63.1953 826.619 63.1953C826.098 63.1953 825.6 63.166 825.125 63.1074C824.65 63.0488 824.201 62.9642 823.777 62.8535C823.361 62.7363 822.98 62.5964 822.635 62.4336V60.2266C823.214 60.4805 823.862 60.7116 824.578 60.9199C825.294 61.1217 826.023 61.2227 826.766 61.2227C827.371 61.2227 827.872 61.1445 828.27 60.9883C828.673 60.8255 828.973 60.5977 829.168 60.3047C829.363 60.0052 829.461 59.6569 829.461 59.2598C829.461 58.8366 829.347 58.4785 829.119 58.1855C828.891 57.8926 828.546 57.6257 828.084 57.3848C827.628 57.1374 827.055 56.8737 826.365 56.5938C825.896 56.4049 825.447 56.1901 825.018 55.9492C824.594 55.7083 824.217 55.4251 823.885 55.0996C823.553 54.7741 823.289 54.39 823.094 53.9473C822.905 53.498 822.811 52.9707 822.811 52.3652C822.811 51.5579 823.003 50.8678 823.387 50.2949C823.777 49.722 824.324 49.2826 825.027 48.9766C825.737 48.6706 826.564 48.5176 827.508 48.5176C828.257 48.5176 828.96 48.5957 829.617 48.752C830.281 48.9082 830.932 49.1296 831.57 49.416L830.828 51.3008C830.242 51.0599 829.673 50.8678 829.119 50.7246C828.572 50.5814 828.012 50.5098 827.439 50.5098C826.945 50.5098 826.525 50.5846 826.18 50.7344C825.835 50.8841 825.571 51.0957 825.389 51.3691C825.213 51.6361 825.125 51.9551 825.125 52.3262C825.125 52.7428 825.226 53.0944 825.428 53.3809C825.636 53.6608 825.955 53.918 826.385 54.1523C826.821 54.3867 827.381 54.6471 828.064 54.9336C828.852 55.2591 829.52 55.6009 830.066 55.959C830.62 56.3171 831.043 56.7467 831.336 57.248C831.629 57.7428 831.775 58.3646 831.775 59.1133Z" fill="#AF6CD8"/>
<path d="M844 52H849V57M849 52L843 58L849 52Z" stroke="#AF6CD8" stroke-width="1.5" stroke-linecap="square"/>
<path d="M900.035 63L898.639 59.0352H893.18L891.783 63H889.312L894.625 48.6641H897.223L902.525 63H900.035ZM898.033 57.0234L896.676 53.1172C896.624 52.9479 896.549 52.7103 896.451 52.4043C896.354 52.0918 896.256 51.776 896.158 51.457C896.061 51.1315 895.979 50.8581 895.914 50.6367C895.849 50.9036 895.768 51.2031 895.67 51.5352C895.579 51.8607 895.488 52.1667 895.396 52.4531C895.312 52.7396 895.247 52.9609 895.201 53.1172L893.834 57.0234H898.033ZM904.41 48.7227H908.658C910.501 48.7227 911.891 48.9896 912.828 49.5234C913.766 50.0573 914.234 50.9785 914.234 52.2871C914.234 52.834 914.137 53.3288 913.941 53.7715C913.753 54.2077 913.476 54.569 913.111 54.8555C912.747 55.1354 912.298 55.3242 911.764 55.4219V55.5195C912.317 55.6172 912.809 55.7897 913.238 56.0371C913.674 56.2845 914.016 56.6393 914.264 57.1016C914.518 57.5638 914.645 58.1628 914.645 58.8984C914.645 59.7708 914.436 60.513 914.02 61.125C913.609 61.737 913.02 62.2025 912.252 62.5215C911.49 62.8405 910.585 63 909.537 63H904.41V48.7227ZM906.754 54.6113H909C910.061 54.6113 910.797 54.4388 911.207 54.0938C911.617 53.7487 911.822 53.2441 911.822 52.5801C911.822 51.903 911.578 51.4147 911.09 51.1152C910.608 50.8158 909.84 50.666 908.785 50.666H906.754V54.6113ZM906.754 56.5059V61.0371H909.225C910.318 61.0371 911.087 60.8255 911.529 60.4023C911.972 59.9792 912.193 59.4062 912.193 58.6836C912.193 58.2409 912.092 57.8568 911.891 57.5312C911.695 57.2057 911.373 56.9551 910.924 56.7793C910.475 56.597 909.869 56.5059 909.107 56.5059H906.754ZM930.27 55.8418C930.27 56.9421 930.13 57.9447 929.85 58.8496C929.576 59.748 929.163 60.5228 928.609 61.1738C928.056 61.8184 927.363 62.3164 926.529 62.668C925.696 63.0195 924.719 63.1953 923.6 63.1953C922.46 63.1953 921.471 63.0195 920.631 62.668C919.798 62.3164 919.104 61.8151 918.551 61.1641C918.004 60.513 917.594 59.735 917.32 58.8301C917.047 57.9251 916.91 56.9225 916.91 55.8223C916.91 54.3509 917.151 53.0684 917.633 51.9746C918.121 50.8743 918.86 50.0215 919.85 49.416C920.846 48.804 922.102 48.498 923.619 48.498C925.104 48.498 926.337 48.8008 927.32 49.4062C928.303 50.0117 929.039 50.8646 929.527 51.9648C930.022 53.0586 930.27 54.3509 930.27 55.8418ZM919.371 55.8418C919.371 56.9421 919.521 57.8958 919.82 58.7031C920.12 59.5039 920.579 60.1224 921.197 60.5586C921.822 60.9883 922.623 61.2031 923.6 61.2031C924.583 61.2031 925.383 60.9883 926.002 60.5586C926.62 60.1224 927.076 59.5039 927.369 58.7031C927.662 57.8958 927.809 56.9421 927.809 55.8418C927.809 54.1686 927.473 52.86 926.803 51.916C926.139 50.9655 925.077 50.4902 923.619 50.4902C922.643 50.4902 921.839 50.7051 921.207 51.1348C920.582 51.5645 920.12 52.1797 919.82 52.9805C919.521 53.7747 919.371 54.7285 919.371 55.8418ZM944.547 48.7227V57.9609C944.547 58.957 944.335 59.849 943.912 60.6367C943.495 61.4245 942.864 62.0495 942.018 62.5117C941.171 62.9674 940.107 63.1953 938.824 63.1953C936.995 63.1953 935.602 62.7168 934.645 61.7598C933.694 60.7962 933.219 59.5169 933.219 57.9219V48.7227H935.562V57.7168C935.562 58.9082 935.842 59.7871 936.402 60.3535C936.962 60.9199 937.799 61.2031 938.912 61.2031C939.68 61.2031 940.305 61.0697 940.787 60.8027C941.275 60.5293 941.633 60.1322 941.861 59.6113C942.096 59.084 942.213 58.4492 942.213 57.707V48.7227H944.547ZM953.15 63H950.797V50.7148H946.617V48.7227H957.32V50.7148H953.15V63ZM975.914 48.7227V57.9609C975.914 58.957 975.702 59.849 975.279 60.6367C974.863 61.4245 974.231 62.0495 973.385 62.5117C972.538 62.9674 971.474 63.1953 970.191 63.1953C968.362 63.1953 966.969 62.7168 966.012 61.7598C965.061 60.7962 964.586 59.5169 964.586 57.9219V48.7227H966.93V57.7168C966.93 58.9082 967.21 59.7871 967.77 60.3535C968.329 60.9199 969.166 61.2031 970.279 61.2031C971.048 61.2031 971.673 61.0697 972.154 60.8027C972.643 60.5293 973.001 60.1322 973.229 59.6113C973.463 59.084 973.58 58.4492 973.58 57.707V48.7227H975.914ZM987.809 59.1133C987.809 59.9596 987.6 60.6888 987.184 61.3008C986.773 61.9128 986.181 62.3815 985.406 62.707C984.638 63.0326 983.72 63.1953 982.652 63.1953C982.132 63.1953 981.633 63.166 981.158 63.1074C980.683 63.0488 980.234 62.9642 979.811 62.8535C979.394 62.7363 979.013 62.5964 978.668 62.4336V60.2266C979.247 60.4805 979.895 60.7116 980.611 60.9199C981.327 61.1217 982.057 61.2227 982.799 61.2227C983.404 61.2227 983.906 61.1445 984.303 60.9883C984.706 60.8255 985.006 60.5977 985.201 60.3047C985.396 60.0052 985.494 59.6569 985.494 59.2598C985.494 58.8366 985.38 58.4785 985.152 58.1855C984.924 57.8926 984.579 57.6257 984.117 57.3848C983.661 57.1374 983.089 56.8737 982.398 56.5938C981.93 56.4049 981.48 56.1901 981.051 55.9492C980.628 55.7083 980.25 55.4251 979.918 55.0996C979.586 54.7741 979.322 54.39 979.127 53.9473C978.938 53.498 978.844 52.9707 978.844 52.3652C978.844 51.5579 979.036 50.8678 979.42 50.2949C979.811 49.722 980.357 49.2826 981.061 48.9766C981.77 48.6706 982.597 48.5176 983.541 48.5176C984.29 48.5176 984.993 48.5957 985.65 48.752C986.314 48.9082 986.965 49.1296 987.604 49.416L986.861 51.3008C986.275 51.0599 985.706 50.8678 985.152 50.7246C984.605 50.5814 984.046 50.5098 983.473 50.5098C982.978 50.5098 982.558 50.5846 982.213 50.7344C981.868 50.8841 981.604 51.0957 981.422 51.3691C981.246 51.6361 981.158 51.9551 981.158 52.3262C981.158 52.7428 981.259 53.0944 981.461 53.3809C981.669 53.6608 981.988 53.918 982.418 54.1523C982.854 54.3867 983.414 54.6471 984.098 54.9336C984.885 55.2591 985.553 55.6009 986.1 55.959C986.653 56.3171 987.076 56.7467 987.369 57.248C987.662 57.7428 987.809 58.3646 987.809 59.1133Z" fill="white"/>
<path d="M1042.61 63H1040.27V56.5547H1033.69V63H1031.35V48.7227H1033.69V54.5625H1040.27V48.7227H1042.61V63ZM1059.06 55.8418C1059.06 56.9421 1058.92 57.9447 1058.64 58.8496C1058.37 59.748 1057.96 60.5228 1057.4 61.1738C1056.85 61.8184 1056.16 62.3164 1055.32 62.668C1054.49 63.0195 1053.51 63.1953 1052.39 63.1953C1051.25 63.1953 1050.26 63.0195 1049.42 62.668C1048.59 62.3164 1047.9 61.8151 1047.34 61.1641C1046.8 60.513 1046.39 59.735 1046.11 58.8301C1045.84 57.9251 1045.7 56.9225 1045.7 55.8223C1045.7 54.3509 1045.94 53.0684 1046.43 51.9746C1046.91 50.8743 1047.65 50.0215 1048.64 49.416C1049.64 48.804 1050.9 48.498 1052.41 48.498C1053.9 48.498 1055.13 48.8008 1056.11 49.4062C1057.1 50.0117 1057.83 50.8646 1058.32 51.9648C1058.82 53.0586 1059.06 54.3509 1059.06 55.8418ZM1048.16 55.8418C1048.16 56.9421 1048.31 57.8958 1048.61 58.7031C1048.91 59.5039 1049.37 60.1224 1049.99 60.5586C1050.62 60.9883 1051.42 61.2031 1052.39 61.2031C1053.38 61.2031 1054.18 60.9883 1054.79 60.5586C1055.41 60.1224 1055.87 59.5039 1056.16 58.7031C1056.46 57.8958 1056.6 56.9421 1056.6 55.8418C1056.6 54.1686 1056.27 52.86 1055.6 51.916C1054.93 50.9655 1053.87 50.4902 1052.41 50.4902C1051.44 50.4902 1050.63 50.7051 1050 51.1348C1049.38 51.5645 1048.91 52.1797 1048.61 52.9805C1048.31 53.7747 1048.16 54.7285 1048.16 55.8418ZM1079.01 48.7227L1075.28 63H1072.72L1070.34 54.4453C1070.28 54.237 1070.22 53.9896 1070.15 53.7031C1070.07 53.4167 1070 53.1237 1069.93 52.8242C1069.87 52.5247 1069.81 52.2513 1069.76 52.0039C1069.71 51.75 1069.68 51.5547 1069.66 51.418C1069.65 51.5547 1069.62 51.7467 1069.57 51.9941C1069.52 52.2415 1069.47 52.515 1069.4 52.8145C1069.35 53.1074 1069.28 53.4004 1069.21 53.6934C1069.14 53.9798 1069.07 54.2337 1069.01 54.4551L1066.67 63H1064.12L1060.4 48.7227H1062.75L1064.81 57.0918C1064.88 57.3587 1064.94 57.6484 1065.01 57.9609C1065.08 58.2669 1065.15 58.5762 1065.21 58.8887C1065.27 59.2012 1065.33 59.5072 1065.38 59.8066C1065.43 60.0996 1065.48 60.3665 1065.51 60.6074C1065.54 60.36 1065.58 60.0866 1065.63 59.7871C1065.69 59.4811 1065.74 59.1719 1065.8 58.8594C1065.87 58.5404 1065.93 58.2344 1066 57.9414C1066.07 57.6484 1066.14 57.3848 1066.21 57.1504L1068.54 48.7227H1070.82L1073.19 57.1797C1073.26 57.4206 1073.33 57.6908 1073.4 57.9902C1073.47 58.2897 1073.54 58.5957 1073.6 58.9082C1073.67 59.2207 1073.73 59.5234 1073.78 59.8164C1073.83 60.1094 1073.87 60.373 1073.91 60.6074C1073.95 60.2884 1074.01 59.9238 1074.08 59.5137C1074.15 59.1035 1074.24 58.6868 1074.33 58.2637C1074.42 57.8405 1074.51 57.4499 1074.6 57.0918L1076.65 48.7227H1079.01ZM1091.18 63H1088.83V50.7148H1084.65V48.7227H1095.35V50.7148H1091.18V63ZM1110.21 55.8418C1110.21 56.9421 1110.07 57.9447 1109.79 58.8496C1109.52 59.748 1109.11 60.5228 1108.55 61.1738C1108 61.8184 1107.31 62.3164 1106.47 62.668C1105.64 63.0195 1104.66 63.1953 1103.54 63.1953C1102.41 63.1953 1101.42 63.0195 1100.58 62.668C1099.74 62.3164 1099.05 61.8151 1098.5 61.1641C1097.95 60.513 1097.54 59.735 1097.27 58.8301C1096.99 57.9251 1096.86 56.9225 1096.86 55.8223C1096.86 54.3509 1097.1 53.0684 1097.58 51.9746C1098.07 50.8743 1098.81 50.0215 1099.79 49.416C1100.79 48.804 1102.05 48.498 1103.56 48.498C1105.05 48.498 1106.28 48.8008 1107.27 49.4062C1108.25 50.0117 1108.98 50.8646 1109.47 51.9648C1109.97 53.0586 1110.21 54.3509 1110.21 55.8418ZM1099.32 55.8418C1099.32 56.9421 1099.47 57.8958 1099.77 58.7031C1100.07 59.5039 1100.52 60.1224 1101.14 60.5586C1101.77 60.9883 1102.57 61.2031 1103.54 61.2031C1104.53 61.2031 1105.33 60.9883 1105.95 60.5586C1106.57 60.1224 1107.02 59.5039 1107.31 58.7031C1107.61 57.8958 1107.75 56.9421 1107.75 55.8418C1107.75 54.1686 1107.42 52.86 1106.75 51.916C1106.08 50.9655 1105.02 50.4902 1103.56 50.4902C1102.59 50.4902 1101.78 50.7051 1101.15 51.1348C1100.53 51.5645 1100.07 52.1797 1099.77 52.9805C1099.47 53.7747 1099.32 54.7285 1099.32 55.8418ZM1126.72 59.1133C1126.72 59.9596 1126.51 60.6888 1126.09 61.3008C1125.68 61.9128 1125.09 62.3815 1124.32 62.707C1123.55 63.0326 1122.63 63.1953 1121.56 63.1953C1121.04 63.1953 1120.54 63.166 1120.07 63.1074C1119.59 63.0488 1119.14 62.9642 1118.72 62.8535C1118.3 62.7363 1117.92 62.5964 1117.58 62.4336V60.2266C1118.16 60.4805 1118.81 60.7116 1119.52 60.9199C1120.24 61.1217 1120.97 61.2227 1121.71 61.2227C1122.31 61.2227 1122.82 61.1445 1123.21 60.9883C1123.62 60.8255 1123.92 60.5977 1124.11 60.3047C1124.31 60.0052 1124.4 59.6569 1124.4 59.2598C1124.4 58.8366 1124.29 58.4785 1124.06 58.1855C1123.83 57.8926 1123.49 57.6257 1123.03 57.3848C1122.57 57.1374 1122 56.8737 1121.31 56.5938C1120.84 56.4049 1120.39 56.1901 1119.96 55.9492C1119.54 55.7083 1119.16 55.4251 1118.83 55.0996C1118.5 54.7741 1118.23 54.39 1118.04 53.9473C1117.85 53.498 1117.75 52.9707 1117.75 52.3652C1117.75 51.5579 1117.95 50.8678 1118.33 50.2949C1118.72 49.722 1119.27 49.2826 1119.97 48.9766C1120.68 48.6706 1121.51 48.5176 1122.45 48.5176C1123.2 48.5176 1123.9 48.5957 1124.56 48.752C1125.22 48.9082 1125.88 49.1296 1126.51 49.416L1125.77 51.3008C1125.19 51.0599 1124.62 50.8678 1124.06 50.7246C1123.52 50.5814 1122.96 50.5098 1122.38 50.5098C1121.89 50.5098 1121.47 50.5846 1121.12 50.7344C1120.78 50.8841 1120.51 51.0957 1120.33 51.3691C1120.16 51.6361 1120.07 51.9551 1120.07 52.3262C1120.07 52.7428 1120.17 53.0944 1120.37 53.3809C1120.58 53.6608 1120.9 53.918 1121.33 54.1523C1121.76 54.3867 1122.32 54.6471 1123.01 54.9336C1123.8 55.2591 1124.46 55.6009 1125.01 55.959C1125.56 56.3171 1125.99 56.7467 1126.28 57.248C1126.57 57.7428 1126.72 58.3646 1126.72 59.1133ZM1137.56 63H1129.47V48.7227H1137.56V50.6953H1131.82V54.5723H1137.2V56.5352H1131.82V61.0176H1137.56V63ZM1140.64 63V48.7227H1142.99V61.0078H1149.05V63H1140.64ZM1151.52 63V48.7227H1153.87V61.0078H1159.93V63H1151.52Z" fill="white"/>
<path d="M1209.13 50.5098C1208.45 50.5098 1207.84 50.6335 1207.3 50.8809C1206.76 51.1283 1206.31 51.4863 1205.94 51.9551C1205.57 52.4173 1205.29 52.9805 1205.09 53.6445C1204.89 54.3021 1204.8 55.0443 1204.8 55.8711C1204.8 56.9779 1204.95 57.9316 1205.27 58.7324C1205.58 59.5267 1206.05 60.1387 1206.69 60.5684C1207.33 60.9915 1208.14 61.2031 1209.11 61.2031C1209.72 61.2031 1210.31 61.1445 1210.88 61.0273C1211.45 60.9102 1212.05 60.7507 1212.66 60.5488V62.541C1212.08 62.7689 1211.49 62.9349 1210.9 63.0391C1210.31 63.1432 1209.62 63.1953 1208.85 63.1953C1207.39 63.1953 1206.18 62.8926 1205.22 62.2871C1204.26 61.6816 1203.54 60.8288 1203.07 59.7285C1202.6 58.6283 1202.37 57.3392 1202.37 55.8613C1202.37 54.7806 1202.51 53.791 1202.81 52.8926C1203.11 51.9941 1203.55 51.2194 1204.12 50.5684C1204.7 49.9108 1205.4 49.4062 1206.24 49.0547C1207.09 48.6966 1208.06 48.5176 1209.14 48.5176C1209.86 48.5176 1210.56 48.599 1211.25 48.7617C1211.95 48.918 1212.59 49.1426 1213.19 49.4355L1212.37 51.3691C1211.87 51.1348 1211.35 50.9329 1210.81 50.7637C1210.27 50.5944 1209.71 50.5098 1209.13 50.5098ZM1228.4 55.8418C1228.4 56.9421 1228.26 57.9447 1227.98 58.8496C1227.71 59.748 1227.29 60.5228 1226.74 61.1738C1226.19 61.8184 1225.49 62.3164 1224.66 62.668C1223.83 63.0195 1222.85 63.1953 1221.73 63.1953C1220.59 63.1953 1219.6 63.0195 1218.76 62.668C1217.93 62.3164 1217.24 61.8151 1216.68 61.1641C1216.13 60.513 1215.72 59.735 1215.45 58.8301C1215.18 57.9251 1215.04 56.9225 1215.04 55.8223C1215.04 54.3509 1215.28 53.0684 1215.76 51.9746C1216.25 50.8743 1216.99 50.0215 1217.98 49.416C1218.98 48.804 1220.23 48.498 1221.75 48.498C1223.23 48.498 1224.47 48.8008 1225.45 49.4062C1226.43 50.0117 1227.17 50.8646 1227.66 51.9648C1228.15 53.0586 1228.4 54.3509 1228.4 55.8418ZM1217.5 55.8418C1217.5 56.9421 1217.65 57.8958 1217.95 58.7031C1218.25 59.5039 1218.71 60.1224 1219.33 60.5586C1219.95 60.9883 1220.75 61.2031 1221.73 61.2031C1222.71 61.2031 1223.51 60.9883 1224.13 60.5586C1224.75 60.1224 1225.21 59.5039 1225.5 58.7031C1225.79 57.8958 1225.94 56.9421 1225.94 55.8418C1225.94 54.1686 1225.6 52.86 1224.93 51.916C1224.27 50.9655 1223.21 50.4902 1221.75 50.4902C1220.77 50.4902 1219.97 50.7051 1219.34 51.1348C1218.71 51.5645 1218.25 52.1797 1217.95 52.9805C1217.65 53.7747 1217.5 54.7285 1217.5 55.8418ZM1243.38 63H1240.5L1233.51 51.6035H1233.42C1233.45 51.9876 1233.47 52.3945 1233.49 52.8242C1233.51 53.2539 1233.53 53.6966 1233.55 54.1523C1233.57 54.6081 1233.58 55.0703 1233.6 55.5391V63H1231.47V48.7227H1234.33L1241.31 60.041H1241.38C1241.37 59.709 1241.35 59.3281 1241.33 58.8984C1241.31 58.4688 1241.29 58.026 1241.27 57.5703C1241.26 57.1081 1241.25 56.6621 1241.24 56.2324V48.7227H1243.38V63ZM1252.08 63H1249.73V50.7148H1245.55V48.7227H1256.25V50.7148H1252.08V63ZM1267.29 63L1265.89 59.0352H1260.43L1259.04 63H1256.56L1261.88 48.6641H1264.47L1269.78 63H1267.29ZM1265.29 57.0234L1263.93 53.1172C1263.88 52.9479 1263.8 52.7103 1263.7 52.4043C1263.61 52.0918 1263.51 51.776 1263.41 51.457C1263.31 51.1315 1263.23 50.8581 1263.17 50.6367C1263.1 50.9036 1263.02 51.2031 1262.92 51.5352C1262.83 51.8607 1262.74 52.1667 1262.65 52.4531C1262.56 52.7396 1262.5 52.9609 1262.45 53.1172L1261.09 57.0234H1265.29ZM1277.75 50.5098C1277.06 50.5098 1276.45 50.6335 1275.91 50.8809C1275.38 51.1283 1274.92 51.4863 1274.55 51.9551C1274.18 52.4173 1273.9 52.9805 1273.7 53.6445C1273.51 54.3021 1273.41 55.0443 1273.41 55.8711C1273.41 56.9779 1273.57 57.9316 1273.88 58.7324C1274.19 59.5267 1274.67 60.1387 1275.3 60.5684C1275.94 60.9915 1276.75 61.2031 1277.73 61.2031C1278.33 61.2031 1278.92 61.1445 1279.49 61.0273C1280.07 60.9102 1280.66 60.7507 1281.27 60.5488V62.541C1280.69 62.7689 1280.11 62.9349 1279.51 63.0391C1278.92 63.1432 1278.24 63.1953 1277.46 63.1953C1276 63.1953 1274.79 62.8926 1273.83 62.2871C1272.87 61.6816 1272.16 60.8288 1271.68 59.7285C1271.21 58.6283 1270.98 57.3392 1270.98 55.8613C1270.98 54.7806 1271.13 53.791 1271.43 52.8926C1271.73 51.9941 1272.16 51.2194 1272.74 50.5684C1273.31 49.9108 1274.02 49.4062 1274.86 49.0547C1275.7 48.6966 1276.67 48.5176 1277.76 48.5176C1278.47 48.5176 1279.18 48.599 1279.87 48.7617C1280.56 48.918 1281.21 49.1426 1281.8 49.4355L1280.98 51.3691C1280.48 51.1348 1279.97 50.9329 1279.43 50.7637C1278.89 50.5944 1278.33 50.5098 1277.75 50.5098ZM1289.29 63H1286.94V50.7148H1282.76V48.7227H1293.46V50.7148H1289.29V63ZM1312.05 48.7227V57.9609C1312.05 58.957 1311.84 59.849 1311.42 60.6367C1311 61.4245 1310.37 62.0495 1309.52 62.5117C1308.68 62.9674 1307.61 63.1953 1306.33 63.1953C1304.5 63.1953 1303.11 62.7168 1302.15 61.7598C1301.2 60.7962 1300.72 59.5169 1300.72 57.9219V48.7227H1303.07V57.7168C1303.07 58.9082 1303.35 59.7871 1303.91 60.3535C1304.47 60.9199 1305.3 61.2031 1306.42 61.2031C1307.19 61.2031 1307.81 61.0697 1308.29 60.8027C1308.78 60.5293 1309.14 60.1322 1309.37 59.6113C1309.6 59.084 1309.72 58.4492 1309.72 57.707V48.7227H1312.05ZM1323.95 59.1133C1323.95 59.9596 1323.74 60.6888 1323.32 61.3008C1322.91 61.9128 1322.32 62.3815 1321.54 62.707C1320.78 63.0326 1319.86 63.1953 1318.79 63.1953C1318.27 63.1953 1317.77 63.166 1317.3 63.1074C1316.82 63.0488 1316.37 62.9642 1315.95 62.8535C1315.53 62.7363 1315.15 62.5964 1314.81 62.4336V60.2266C1315.39 60.4805 1316.03 60.7116 1316.75 60.9199C1317.47 61.1217 1318.2 61.2227 1318.94 61.2227C1319.54 61.2227 1320.04 61.1445 1320.44 60.9883C1320.85 60.8255 1321.14 60.5977 1321.34 60.3047C1321.54 60.0052 1321.63 59.6569 1321.63 59.2598C1321.63 58.8366 1321.52 58.4785 1321.29 58.1855C1321.06 57.8926 1320.72 57.6257 1320.26 57.3848C1319.8 57.1374 1319.23 56.8737 1318.54 56.5938C1318.07 56.4049 1317.62 56.1901 1317.19 55.9492C1316.77 55.7083 1316.39 55.4251 1316.06 55.0996C1315.72 54.7741 1315.46 54.39 1315.27 53.9473C1315.08 53.498 1314.98 52.9707 1314.98 52.3652C1314.98 51.5579 1315.17 50.8678 1315.56 50.2949C1315.95 49.722 1316.5 49.2826 1317.2 48.9766C1317.91 48.6706 1318.74 48.5176 1319.68 48.5176C1320.43 48.5176 1321.13 48.5957 1321.79 48.752C1322.45 48.9082 1323.1 49.1296 1323.74 49.416L1323 51.3008C1322.41 51.0599 1321.84 50.8678 1321.29 50.7246C1320.74 50.5814 1320.18 50.5098 1319.61 50.5098C1319.12 50.5098 1318.7 50.5846 1318.35 50.7344C1318.01 50.8841 1317.74 51.0957 1317.56 51.3691C1317.38 51.6361 1317.3 51.9551 1317.3 52.3262C1317.3 52.7428 1317.4 53.0944 1317.6 53.3809C1317.81 53.6608 1318.13 53.918 1318.56 54.1523C1318.99 54.3867 1319.55 54.6471 1320.24 54.9336C1321.02 55.2591 1321.69 55.6009 1322.24 55.959C1322.79 56.3171 1323.21 56.7467 1323.51 57.248C1323.8 57.7428 1323.95 58.3646 1323.95 59.1133Z" fill="white"/>
<path d="M1381.64 55.2461H1386.97V62.4141C1386.22 62.6615 1385.45 62.8535 1384.64 62.9902C1383.84 63.127 1382.95 63.1953 1381.95 63.1953C1380.5 63.1953 1379.27 62.9089 1378.26 62.3359C1377.26 61.7565 1376.49 60.9199 1375.97 59.8262C1375.45 58.7259 1375.19 57.401 1375.19 55.8516C1375.19 54.3607 1375.48 53.0684 1376.06 51.9746C1376.64 50.8743 1377.48 50.0247 1378.59 49.4258C1379.7 48.8203 1381.04 48.5176 1382.61 48.5176C1383.39 48.5176 1384.14 48.5957 1384.86 48.752C1385.59 48.9017 1386.26 49.11 1386.86 49.377L1386.04 51.3105C1385.56 51.0827 1385.02 50.8906 1384.42 50.7344C1383.82 50.5781 1383.2 50.5 1382.55 50.5C1381.53 50.5 1380.65 50.7214 1379.91 51.1641C1379.17 51.6068 1378.61 52.2318 1378.21 53.0391C1377.81 53.8398 1377.61 54.7871 1377.61 55.8809C1377.61 56.9421 1377.77 57.873 1378.09 58.6738C1378.41 59.4746 1378.91 60.0996 1379.59 60.5488C1380.27 60.9915 1381.15 61.2129 1382.23 61.2129C1382.77 61.2129 1383.23 61.1836 1383.61 61.125C1383.99 61.0664 1384.34 61.0013 1384.65 60.9297V57.248H1381.64V55.2461ZM1390.39 48.7227H1394.63C1396.48 48.7227 1397.87 48.9896 1398.8 49.5234C1399.74 50.0573 1400.21 50.9785 1400.21 52.2871C1400.21 52.834 1400.11 53.3288 1399.92 53.7715C1399.73 54.2077 1399.45 54.569 1399.09 54.8555C1398.72 55.1354 1398.27 55.3242 1397.74 55.4219V55.5195C1398.29 55.6172 1398.79 55.7897 1399.21 56.0371C1399.65 56.2845 1399.99 56.6393 1400.24 57.1016C1400.49 57.5638 1400.62 58.1628 1400.62 58.8984C1400.62 59.7708 1400.41 60.513 1400 61.125C1399.59 61.737 1399 62.2025 1398.23 62.5215C1397.47 62.8405 1396.56 63 1395.51 63H1390.39V48.7227ZM1392.73 54.6113H1394.98C1396.04 54.6113 1396.77 54.4388 1397.18 54.0938C1397.59 53.7487 1397.8 53.2441 1397.8 52.5801C1397.8 51.903 1397.55 51.4147 1397.07 51.1152C1396.58 50.8158 1395.82 50.666 1394.76 50.666H1392.73V54.6113ZM1392.73 56.5059V61.0371H1395.2C1396.29 61.0371 1397.06 60.8255 1397.51 60.4023C1397.95 59.9792 1398.17 59.4062 1398.17 58.6836C1398.17 58.2409 1398.07 57.8568 1397.87 57.5312C1397.67 57.2057 1397.35 56.9551 1396.9 56.7793C1396.45 56.597 1395.85 56.5059 1395.08 56.5059H1392.73ZM1407.72 48.7227C1409.56 48.7227 1410.91 49.1003 1411.75 49.8555C1412.6 50.6107 1413.02 51.6686 1413.02 53.0293C1413.02 53.6478 1412.93 54.237 1412.73 54.7969C1412.54 55.3503 1412.23 55.8418 1411.79 56.2715C1411.36 56.6947 1410.78 57.0299 1410.06 57.2773C1409.35 57.5247 1408.48 57.6484 1407.44 57.6484H1405.91V63H1403.57V48.7227H1407.72ZM1407.56 50.666H1405.91V55.6953H1407.19C1407.93 55.6953 1408.55 55.6107 1409.07 55.4414C1409.58 55.2656 1409.97 54.9889 1410.24 54.6113C1410.51 54.2337 1410.64 53.7357 1410.64 53.1172C1410.64 52.2904 1410.39 51.6751 1409.89 51.2715C1409.39 50.8678 1408.62 50.666 1407.56 50.666Z" fill="white"/>
<path d="M1432 52L1428 56L1424 52" stroke="white" stroke-width="2" stroke-linecap="round" stroke-linejoin="round"/>
<g clip-path="url(#clip0_1_1601)">
<path d="M1487 55C1489.21 55 1491 53.21 1491 51C1491 48.79 1489.21 47 1487 47C1484.79 47 1483 48.79 1483 51C1483 53.21 1484.79 55 1487 55ZM1487 57C1484.33 57 1479 58.34 1479 61V63H1495V61C1495 58.34 1489.67 57 1487 57Z" fill="white"/>
</g>
<path d="M1552.5 62C1552.2 62 1551.91 62.088 1551.67 62.2528C1551.42 62.4176 1551.23 62.6519 1551.11 62.926C1551 63.2001 1550.97 63.5017 1551.03 63.7926C1551.09 64.0836 1551.23 64.3509 1551.44 64.5607C1551.65 64.7704 1551.92 64.9133 1552.21 64.9712C1552.5 65.0291 1552.8 64.9993 1553.07 64.8858C1553.35 64.7723 1553.58 64.58 1553.75 64.3334C1553.91 64.0867 1554 63.7967 1554 63.5C1554 63.1022 1553.84 62.7206 1553.56 62.4393C1553.28 62.158 1552.9 62 1552.5 62ZM1563 59H1551C1550.73 59 1550.48 58.8946 1550.29 58.7071C1550.11 58.5196 1550 58.2652 1550 58C1550 57.7348 1550.11 57.4804 1550.29 57.2929C1550.48 57.1054 1550.73 57 1551 57H1559.49C1560.14 56.9979 1560.78 56.7847 1561.3 56.3925C1561.82 56.0002 1562.19 55.45 1562.38 54.8242L1563.96 49.2749C1564 49.1261 1564.01 48.9694 1563.98 48.8172C1563.95 48.665 1563.89 48.5215 1563.8 48.3979C1563.71 48.2743 1563.58 48.1741 1563.45 48.105C1563.31 48.036 1563.15 48 1563 48H1550.74C1550.53 47.4174 1550.15 46.9127 1549.65 46.5548C1549.14 46.1969 1548.54 46.0032 1547.92 46H1547C1546.73 46 1546.48 46.1054 1546.29 46.2929C1546.11 46.4804 1546 46.7348 1546 47C1546 47.2652 1546.11 47.5196 1546.29 47.7071C1546.48 47.8946 1546.73 48 1547 48H1547.92C1548.14 48.0008 1548.35 48.0718 1548.52 48.2025C1548.7 48.3332 1548.82 48.5166 1548.88 48.7251L1549.04 49.2698L1549.04 49.2749L1550.68 55.0171C1549.92 55.0992 1549.21 55.4709 1548.72 56.0557C1548.22 56.6405 1547.96 57.3938 1548 58.1606C1548.05 58.9273 1548.38 59.6491 1548.94 60.1773C1549.49 60.7055 1550.23 61 1551 61H1563C1563.27 61 1563.52 60.8946 1563.71 60.7071C1563.89 60.5196 1564 60.2652 1564 60C1564 59.7348 1563.89 59.4804 1563.71 59.2929C1563.52 59.1054 1563.27 59 1563 59ZM1561.67 50L1560.45 54.2744C1560.39 54.4831 1560.27 54.6666 1560.09 54.7974C1559.92 54.9282 1559.71 54.9993 1559.49 55H1552.75L1552.5 54.1078L1551.33 50H1561.67ZM1560.5 62C1560.2 62 1559.91 62.088 1559.67 62.2528C1559.42 62.4176 1559.23 62.6519 1559.11 62.926C1559 63.2001 1558.97 63.5017 1559.03 63.7926C1559.09 64.0836 1559.23 64.3509 1559.44 64.5607C1559.65 64.7704 1559.92 64.9133 1560.21 64.9712C1560.5 65.0291 1560.8 64.9993 1561.07 64.8858C1561.35 64.7723 1561.58 64.58 1561.75 64.3334C1561.91 64.0867 1562 63.7967 1562 63.5C1562 63.1022 1561.84 62.7206 1561.56 62.4393C1561.28 62.158 1560.9 62 1560.5 62Z" fill="white"/>
<defs>
<linearGradient id="paint0_linear_1_1601" x1="479.782" y1="66.173" x2="462.744" y2="66.4523" gradientUnits="userSpaceOnUse">
<stop stop-color="#993CD2"/>
<stop offset="1" stop-color="white"/>
</linearGradient>
<clipPath id="clip0_1_1601">
<rect width="24" height="24" fill="white" transform="translate(1475 43)"/>
</clipPath>
</defs>
</svg>
