<svg width="969" height="60" viewBox="0 0 969 60" fill="none" xmlns="http://www.w3.org/2000/svg">
<path d="M16.5405 51C16.5405 54.9775 13.0617 58.202 8.77026 58.202C4.47887 58.202 1 54.9775 1 51C1 47.0224 4.47887 43.798 8.77026 43.798C13.0617 43.798 16.5405 47.0224 16.5405 51Z" fill="#3A2746"/>
<path d="M968.34 1H506.5L456.5 51H16.5405M16.5405 51C16.5405 54.9775 13.0617 58.202 8.77026 58.202C4.47887 58.202 1 54.9775 1 51C1 47.0224 4.47887 43.798 8.77026 43.798C13.0617 43.798 16.5405 47.0224 16.5405 51Z" stroke="#3A2746" stroke-width="2"/>
</svg>
